<?xml version="1.0" encoding="UTF-8"?>
<svg id="Layer_2" data-name="Layer 2" xmlns="http://www.w3.org/2000/svg" viewBox="0 0 184.73 156.25">
  <defs>
    <style>
      .cls-1, .cls-2, .cls-3, .cls-4 {
        stroke-width: 0px;
      }

      .cls-2 {
        fill: #0fffff;
      }

      .cls-3 {
        fill: #f70600;
      }

      .cls-4 {
        fill: #ff2800;
      }
    </style>
  </defs>
  <g id="Layer_1-2" data-name="Layer 1">
    <g>
      <g>
        <path class="cls-2" d="M158.25,11.13l-1,3.98c-.52,2.06-2.31,3.54-4.43,3.67l-55.62,3.29c-2.01.12-3.53,1.85-3.42,3.85.11,1.86,1.6,3.31,3.43,3.41.13,0,.28,0,.43,0l53.03-3.13c1.91-.11,3.38,1.66,2.91,3.51l-5.96,23.76c-.27,1.05-1.18,1.79-2.26,1.83l-52.93,2.09c-1.11-.01-2.16-.78-2.62-1.93l-2.09-5.4c-.57-1.46.45-3.05,2.02-3.14l47.65-2.82c2.01-.12,3.53-1.85,3.42-3.85-.13-2-1.84-3.52-3.85-3.42l-49.83,2.95c-1.97.12-3.79-1.05-4.5-2.89l-7.28-18.79c-.7-1.79.53-3.74,2.44-3.88l77.63-6.43c1.84-.16,3.28,1.55,2.84,3.34Z"/>
        <path class="cls-4" d="M83.36,74.57c-1.95-.11-3.7-1.32-4.48-3.14L53.02,11.07l-20.48,3.81c-2.82.52-5.54-1.34-6.06-4.16-.52-2.82,1.34-5.53,4.16-6.06L55.21.09c2.39-.45,4.77.83,5.73,3.06l26.1,60.9,57.29-2.21c2.88-.11,5.28,2.12,5.39,4.99.11,2.87-2.12,5.28-4.99,5.39l-60.86,2.35c-.17,0-.33,0-.5,0Z"/>
        <circle class="cls-3" cx="98.8" cy="86.74" r="7.73"/>
        <circle class="cls-3" cx="133.65" cy="86.06" r="8.19"/>
      </g>
      <g>
        <path class="cls-1" d="M7.62,154.75c-2.28-1-4.08-2.37-5.4-4.11-1.32-1.74-2.06-3.69-2.22-5.85h10.14c.12,1.16.66,2.1,1.62,2.82.96.72,2.14,1.08,3.54,1.08,1.28,0,2.27-.25,2.97-.75.7-.5,1.05-1.15,1.05-1.95,0-.96-.5-1.67-1.5-2.13-1-.46-2.62-.97-4.86-1.53-2.4-.56-4.4-1.15-6-1.77-1.6-.62-2.98-1.6-4.14-2.94-1.16-1.34-1.74-3.15-1.74-5.43,0-1.92.53-3.67,1.59-5.25,1.06-1.58,2.62-2.83,4.68-3.75,2.06-.92,4.51-1.38,7.35-1.38,4.2,0,7.51,1.04,9.93,3.12,2.42,2.08,3.81,4.84,4.17,8.28h-9.48c-.16-1.16-.67-2.08-1.53-2.76-.86-.68-1.99-1.02-3.39-1.02-1.2,0-2.12.23-2.76.69-.64.46-.96,1.09-.96,1.89,0,.96.51,1.68,1.53,2.16,1.02.48,2.61.96,4.77,1.44,2.48.64,4.5,1.27,6.06,1.89,1.56.62,2.93,1.62,4.11,3,1.18,1.38,1.79,3.23,1.83,5.55,0,1.96-.55,3.71-1.65,5.25-1.1,1.54-2.68,2.75-4.74,3.63-2.06.88-4.45,1.32-7.17,1.32-2.92,0-5.52-.5-7.8-1.5Z"/>
        <path class="cls-1" d="M58.3,122.3v4.74c-.96-1.56-2.33-2.82-4.11-3.78-1.78-.96-3.85-1.44-6.21-1.44-2.76,0-5.26.7-7.5,2.1-2.24,1.4-4.01,3.4-5.31,6-1.29,2.6-1.94,5.62-1.94,9.05s.65,6.47,1.94,9.09c1.3,2.61,3.07,4.63,5.31,6.05,2.24,1.42,4.72,2.13,7.44,2.13,2.36,0,4.43-.48,6.21-1.44,1.77-.96,3.16-2.22,4.17-3.78v4.73h10.25v-33.47h-10.25ZM56.16,145.1c-1.41,1.48-3.14,2.22-5.18,2.22s-3.77-.75-5.19-2.25c-1.42-1.5-2.13-3.53-2.13-6.09s.71-4.56,2.13-6.02c1.42-1.46,3.15-2.19,5.19-2.19s3.77.74,5.18,2.22c1.42,1.48,2.13,3.5,2.13,6.06s-.71,4.58-2.13,6.05Z"/>
        <path class="cls-1" d="M92.78,130.82h-5.52v24.95h-10.26v-24.95h-3.72v-8.52h3.72v-.96c0-4.12,1.18-7.25,3.54-9.39,2.36-2.14,5.82-3.21,10.38-3.21.76,0,1.32.02,1.68.06v8.7c-1.96-.12-3.34.16-4.14.84-.8.68-1.2,1.9-1.2,3.66v.3h5.52v8.52Z"/>
        <path class="cls-2" d="M98.33,117.24c-1.14-1.06-1.71-2.37-1.71-3.93s.57-2.93,1.71-3.99c1.14-1.06,2.61-1.59,4.41-1.59s3.21.53,4.35,1.59c1.14,1.06,1.71,2.39,1.71,3.99s-.57,2.87-1.71,3.93c-1.14,1.06-2.59,1.59-4.35,1.59s-3.27-.53-4.41-1.59Z"/>
        <rect class="cls-1" x="97.58" y="122.31" width="10.26" height="33.47"/>
        <path class="cls-1" d="M115.36,129.92c1.42-2.6,3.4-4.6,5.94-6,2.54-1.4,5.45-2.1,8.73-2.1,4.2,0,7.71,1.1,10.53,3.3,2.82,2.2,4.67,5.3,5.55,9.3h-10.92c-.92-2.56-2.7-3.84-5.34-3.84-1.88,0-3.38.73-4.5,2.19-1.12,1.46-1.68,3.55-1.68,6.27s.56,4.81,1.68,6.27c1.12,1.46,2.62,2.19,4.5,2.19,2.64,0,4.42-1.28,5.34-3.84h10.92c-.88,3.92-2.74,7-5.58,9.24-2.84,2.24-6.34,3.36-10.5,3.36-3.28,0-6.19-.7-8.73-2.1-2.54-1.4-4.52-3.4-5.94-6-1.42-2.6-2.13-5.64-2.13-9.12s.71-6.52,2.13-9.12Z"/>
        <polygon class="cls-1" points="172.01 155.77 161.81 141.74 161.81 155.77 151.56 155.77 151.56 111.39 161.81 111.39 161.81 135.92 171.95 122.31 184.61 122.31 170.69 139.1 184.73 155.77 172.01 155.77"/>
      </g>
    </g>
  </g>
</svg>